<svg xmlns="http://www.w3.org/2000/svg" width="512" height="288" viewBox="0 0 512 288" role="img" aria-label="One Dark Pro for Obsidian preview">
  <rect width="512" height="288" fill="#282c34"/>
  <rect x="0" y="0" width="70" height="288" fill="#21252b"/>
  <rect x="70" y="0" width="442" height="34" fill="#21252b"/>
  <rect x="86" y="50" width="300" height="178" rx="6" fill="#2c313a"/>
  <rect x="404" y="50" width="84" height="178" rx="6" fill="#21252b"/>
  <circle cx="22" cy="21" r="5" fill="#e06c75"/>
  <circle cx="40" cy="21" r="5" fill="#e5c07b"/>
  <circle cx="58" cy="21" r="5" fill="#98c379"/>
  <text x="92" y="23" fill="#abb2bf" font-family="Inter, Arial, sans-serif" font-size="13">One Dark Pro</text>
  <text x="106" y="78" fill="#61afef" font-family="Inter, Arial, sans-serif" font-size="26" font-weight="700">Engineering Notes</text>
  <rect x="106" y="96" width="142" height="4" rx="2" fill="#d19a66"/>
  <text x="106" y="128" fill="#abb2bf" font-family="Inter, Arial, sans-serif" font-size="13">Markdown, code, graphs, and canvas</text>
  <rect x="106" y="150" width="242" height="56" rx="5" fill="#21252b"/>
  <text x="120" y="173" fill="#c678dd" font-family="JetBrains Mono, monospace" font-size="12">const</text>
  <text x="163" y="173" fill="#e5c07b" font-family="JetBrains Mono, monospace" font-size="12">theme</text>
  <text x="211" y="173" fill="#56b6c2" font-family="JetBrains Mono, monospace" font-size="12">=</text>
  <text x="230" y="173" fill="#98c379" font-family="JetBrains Mono, monospace" font-size="12">"One Dark Pro"</text>
  <text x="120" y="192" fill="#5c6370" font-family="JetBrains Mono, monospace" font-size="12">// Obsidian-ready palette</text>
  <rect x="420" y="72" width="52" height="8" rx="4" fill="#61afef"/>
  <rect x="420" y="94" width="40" height="8" rx="4" fill="#98c379"/>
  <rect x="420" y="116" width="58" height="8" rx="4" fill="#c678dd"/>
  <rect x="420" y="138" width="34" height="8" rx="4" fill="#e06c75"/>
  <rect x="420" y="160" width="48" height="8" rx="4" fill="#d19a66"/>
</svg>
